<?xml version="1.0" standalone="no"?>
<!DOCTYPE svg PUBLIC "-//W3C//DTD SVG 20010904//EN"
 "http://www.w3.org/TR/2001/REC-SVG-20010904/DTD/svg10.dtd">
<svg version="1.0" xmlns="http://www.w3.org/2000/svg"
 width="4794.000000pt" height="4269.000000pt" viewBox="0 0 4794.000000 4269.000000"
 preserveAspectRatio="xMidYMid meet">

<g transform="translate(0.000000,4269.000000) scale(0.100000,-0.100000)"
fill="#000000" stroke="none">
<path d="M23330 42684 c-1077 -28 -2101 -140 -3115 -340 -4352 -861 -8240
-3320 -10925 -6909 -2670 -3569 -3924 -7979 -3540 -12455 50 -581 148 -1299
248 -1813 13 -69 16 -100 8 -102 -6 -2 -832 -171 -1835 -374 -1003 -204 -1825
-372 -1826 -373 -1 -2 -48 -2384 -104 -5295 l-103 -5291 -1068 -4863 c-588
-2675 -1067 -4865 -1065 -4868 5 -5 -7 -14 277 200 1284 966 3105 2108 4908
3077 877 471 1955 1005 2854 1414 894 407 1895 824 2811 1173 198 75 1496 596
2884 1157 l2525 1020 45 -20 c26 -10 150 -65 277 -120 1868 -813 3906 -1305
5954 -1437 760 -49 1623 -49 2380 0 2581 168 5091 891 7370 2126 124 67 392
204 595 304 474 233 683 350 1125 629 1175 742 3081 2192 4878 3710 150 127
283 236 295 243 16 9 1007 46 3552 133 1941 67 3530 122 3531 123 1 1 115 241
252 532 l250 530 -122 5 -121 5 707 2890 c389 1590 707 2897 708 2906 0 12
-57 27 -277 72 -1803 371 -4002 662 -5850 774 -197 12 -293 21 -293 29 0 6 15
109 34 230 295 1875 296 3785 5 5674 -811 5269 -3952 9950 -8537 12723 -2571
1556 -5449 2426 -8488 2567 -233 10 -991 20 -1204 14z m810 -1643 c334 -23
565 -43 790 -67 2288 -240 4510 -970 6520 -2141 1661 -968 3171 -2240 4409
-3713 2271 -2701 3617 -5985 3865 -9430 40 -548 52 -1349 27 -1805 -30 -548
-86 -1071 -171 -1590 -36 -216 -150 -798 -160 -814 -5 -9 -49 -9 -176 -1 -93
6 -330 19 -527 29 -196 10 -359 20 -361 22 -2 2 4 103 14 224 26 304 47 661
61 1040 13 368 7 1540 -10 1840 -33 570 -70 1000 -127 1445 -33 260 -68 498
-59 400 12 -133 17 -989 6 -1215 -43 -932 -228 -2269 -472 -3415 -28 -129 -53
-250 -56 -268 l-6 -34 -66 6 c-63 6 -589 20 -1222 34 l-297 7 174 572 173 572
-31 67 c-21 46 -32 87 -36 133 -5 73 6 105 59 171 52 64 90 213 109 420 16
167 10 258 -23 346 -60 159 -82 358 -66 568 14 167 4 231 -44 303 -45 66 -109
97 -204 97 -39 1 -74 -1 -77 -4 -3 -3 4 -35 16 -70 16 -49 21 -91 22 -170 0
-123 -17 -195 -76 -320 -38 -81 -41 -84 -51 -60 -6 14 -60 131 -119 260 l-108
235 31 45 c74 104 229 339 258 391 36 65 40 125 15 223 -17 67 -80 209 -114
256 -26 36 -58 40 -64 8 -37 -199 -68 -276 -151 -386 -26 -35 -75 -85 -108
-112 l-61 -49 -53 101 c-30 55 -81 147 -114 204 -53 92 -59 109 -59 159 0 68
4 76 96 191 107 134 201 276 253 384 44 91 46 98 46 185 -1 79 -4 99 -34 168
-55 128 -125 180 -212 157 -65 -18 -85 -42 -119 -148 -64 -194 -170 -361 -284
-450 l-55 -42 -19 27 c-10 16 -81 124 -156 241 l-138 214 4 98 c3 94 5 100 33
130 16 16 47 35 70 41 64 17 124 57 207 137 86 83 175 204 184 251 9 43 -14
289 -37 405 -25 123 -60 201 -100 222 -58 29 -106 -8 -208 -161 -73 -110 -204
-253 -295 -323 -34 -26 -103 -69 -156 -95 -52 -27 -99 -53 -105 -57 -6 -5 -74
93 -170 244 l-160 251 -5 109 c-6 125 -16 111 107 146 186 53 345 167 400 287
54 118 39 287 -37 406 -24 38 -35 47 -48 42 -57 -24 -101 -35 -222 -55 -397
-63 -537 -96 -629 -146 -24 -13 -45 -23 -46 -22 -1 2 -26 41 -55 88 -29 47
-124 194 -212 326 -144 220 -158 244 -148 268 5 14 24 35 42 47 50 31 153 21
287 -26 121 -44 175 -44 258 -2 100 51 139 123 131 241 -12 178 -113 272 -335
312 -79 14 -131 16 -297 11 -243 -8 -343 -24 -403 -67 -24 -16 -45 -30 -47
-30 -2 0 -53 69 -114 153 -60 83 -189 258 -286 387 -96 129 -172 237 -168 241
19 18 166 40 264 41 170 0 291 -31 501 -128 76 -35 143 -64 149 -64 7 0 9 26
6 73 -7 112 -61 200 -173 284 -198 149 -568 263 -1035 319 -74 9 -136 17 -136
18 -1 0 -117 156 -258 345 -153 206 -253 348 -247 354 20 20 118 -1 241 -52
157 -66 480 -174 585 -196 158 -33 268 -21 281 30 10 39 -14 73 -112 160 -454
404 -967 629 -1329 582 l-61 -8 -30 43 c-17 24 -139 195 -272 380 -133 185
-243 342 -244 349 -4 18 110 11 200 -12 43 -11 164 -61 281 -118 364 -175 583
-259 703 -268 85 -7 116 1 124 31 12 51 -17 87 -153 185 -482 349 -978 572
-1363 613 l-106 12 -109 160 c-61 89 -168 246 -239 350 l-129 189 99 -6 c335
-22 711 -150 1065 -363 59 -35 114 -64 122 -64 23 0 39 27 32 50 -24 75 -275
351 -420 461 -211 162 -493 301 -762 379 -157 45 -217 53 -368 54 l-140 0 -90
109 c-49 60 -158 180 -242 266 l-151 157 76 -8 c244 -26 586 -119 857 -233
200 -84 195 -83 210 -61 17 22 9 45 -42 131 -150 250 -379 441 -631 525 -212
70 -476 77 -733 20 l-84 -19 -115 117 c-63 64 -180 187 -259 272 l-144 155
189 3 c367 6 784 -47 995 -127 69 -27 89 -27 89 0 0 24 -685 728 -875 898
-348 312 -666 521 -885 580 -84 23 -401 65 -620 81 -180 14 -211 22 -387 104
-158 73 -333 134 -463 162 -62 14 -127 19 -245 19 -177 0 -238 -13 -353 -77
-153 -85 -225 -149 -220 -194 4 -41 39 -56 113 -49 101 10 119 13 161 24 75
20 147 31 166 25 17 -5 17 -7 -4 -47 -36 -72 -116 -184 -167 -235 -56 -56 -91
-77 -171 -101 -71 -22 -78 -45 -18 -62 53 -14 236 -6 363 16 50 9 203 45 340
80 317 82 501 116 633 118 l103 2 30 -35 c45 -55 46 -67 3 -111 -65 -66 -218
-131 -424 -179 -236 -54 -291 -70 -373 -105 -136 -60 -247 -170 -247 -247 0
-45 13 -73 39 -88 31 -16 191 -31 231 -20 19 5 73 14 120 20 159 21 355 97
539 209 46 28 109 60 140 72 64 24 186 48 248 49 l42 0 148 -176 c81 -97 160
-191 175 -209 l28 -33 -73 -6 c-184 -17 -327 -53 -408 -104 -56 -36 -162 -127
-296 -254 -84 -80 -112 -100 -154 -112 -61 -19 -157 -21 -214 -5 -29 8 -40 8
-43 0 -3 -8 -24 -10 -71 -6 -87 8 -125 -3 -129 -37 -2 -20 6 -33 40 -61 56
-46 178 -121 301 -185 137 -72 150 -72 353 19 348 156 755 307 953 354 l74 18
40 -44 c23 -24 124 -133 226 -242 102 -110 205 -220 228 -247 l42 -47 -127
-33 c-317 -81 -606 -193 -693 -267 -134 -115 -289 -186 -474 -218 -50 -8 -85
-30 -85 -53 0 -24 32 -52 103 -92 31 -17 57 -37 57 -44 0 -16 95 -46 144 -46
23 0 84 21 164 56 462 205 899 353 1131 384 l84 11 75 -73 c162 -160 462 -488
462 -506 0 -5 -24 -16 -54 -25 -185 -59 -445 -226 -655 -422 -185 -173 -447
-513 -458 -594 -9 -69 57 -114 192 -128 35 -4 65 -12 71 -21 9 -12 19 -13 60
-4 27 6 69 13 92 17 70 9 115 39 185 122 233 280 528 475 827 547 57 14 105
25 106 23 13 -13 473 -692 470 -694 -1 -2 -38 -12 -82 -23 -170 -44 -385 -171
-569 -336 -134 -119 -319 -346 -432 -527 l-54 -89 24 -36 c33 -49 90 -107 137
-138 21 -14 45 -42 55 -64 10 -22 19 -40 21 -40 16 0 236 85 275 106 59 32
143 113 249 237 174 204 404 368 617 441 l71 24 287 -401 c158 -221 289 -406
291 -412 1 -5 -28 -25 -67 -43 -92 -44 -250 -150 -379 -253 -181 -145 -567
-543 -655 -678 l-24 -36 14 -103 c43 -308 136 -444 294 -429 128 11 263 111
474 350 194 222 303 333 432 444 111 96 276 214 298 212 7 0 135 -166 284
-369 l273 -368 -24 -55 c-14 -30 -45 -120 -71 -200 -50 -158 -86 -226 -179
-337 -119 -142 -386 -382 -643 -577 -107 -81 -112 -87 -124 -136 -7 -29 -13
-92 -13 -142 0 -159 57 -240 187 -266 150 -30 441 63 641 206 259 184 485 498
652 904 10 23 14 19 90 -80 103 -133 415 -558 523 -711 l83 -118 -12 -52 c-29
-122 -124 -308 -309 -603 -113 -182 -379 -571 -440 -645 -52 -63 -52 -64 -71
-156 l-17 -83 28 -10 c15 -5 40 -28 55 -51 49 -73 140 -109 234 -92 32 6 55 4
79 -6 l34 -14 64 64 c61 61 71 78 287 513 123 247 250 506 281 575 31 69 61
129 65 133 8 9 218 -307 410 -617 l123 -199 -17 -118 c-37 -265 -199 -717
-418 -1169 -45 -93 -84 -192 -108 -275 l-38 -130 41 -18 c24 -10 51 -32 64
-51 32 -49 86 -71 145 -59 30 6 53 6 65 0 14 -8 21 -4 38 18 11 16 38 45 60
64 109 96 247 245 304 331 124 186 214 401 263 632 l23 106 178 -276 178 -277
-5 -140 c-7 -235 -46 -383 -165 -625 -38 -80 -82 -185 -96 -235 -28 -96 -55
-254 -55 -320 0 -22 -11 -96 -25 -165 -34 -172 -33 -183 9 -198 30 -11 35 -19
41 -55 11 -61 41 -115 78 -137 60 -37 107 -21 180 60 176 196 307 537 382 998
14 86 28 172 31 191 l5 33 61 -93 c33 -52 119 -186 190 -298 l130 -204 5 -107
c10 -191 -30 -363 -126 -543 -27 -51 -66 -132 -87 -182 -72 -177 -173 -465
-172 -492 1 -15 -9 -78 -22 -138 l-24 -111 22 -45 c27 -55 71 -83 132 -83 58
1 95 20 175 95 182 171 303 490 345 909 7 63 15 141 19 173 l6 59 78 -151 78
-151 -6 -142 c-16 -372 -51 -545 -149 -743 -36 -71 -80 -170 -99 -220 -19 -49
-64 -163 -101 -252 -36 -89 -66 -167 -66 -172 0 -6 7 -11 15 -11 20 0 20 -3
-21 -183 -20 -87 -33 -164 -30 -172 3 -8 14 -15 25 -15 26 0 131 78 226 170
44 42 88 80 97 83 9 3 27 25 39 49 12 23 44 79 72 123 141 225 229 497 256
798 5 60 11 111 13 113 5 4 101 -218 100 -231 -2 -32 -46 -275 -72 -395 -64
-302 -142 -529 -261 -755 -37 -71 -84 -179 -105 -240 -20 -60 -54 -156 -75
-213 -22 -56 -39 -106 -39 -111 0 -5 9 -12 20 -16 17 -5 20 -17 22 -102 l3
-96 55 72 c38 51 59 70 70 65 36 -15 44 -7 81 75 28 64 52 99 101 148 115 117
218 169 256 131 56 -56 -79 -367 -371 -860 l-82 -138 -665 0 c-1043 0 -2387
-29 -3052 -66 l-118 -7 0 737 0 736 -1887 0 -1886 0 7 -157 c11 -261 19 -1134
12 -1195 l-7 -56 -102 -6 c-56 -3 -293 -10 -527 -16 -1789 -45 -3886 -175
-5749 -356 -200 -19 -370 -34 -378 -32 -8 2 243 56 559 122 376 78 590 127
624 142 28 13 60 24 72 24 11 0 32 4 47 10 24 9 25 11 12 43 -14 31 -13 36 28
104 52 90 75 160 75 232 0 77 -25 115 -98 149 -52 24 -68 26 -177 26 -144 0
-235 -18 -435 -84 -202 -66 -336 -124 -620 -267 -158 -79 -268 -128 -310 -138
-65 -15 -430 -48 -439 -40 -2 3 6 87 18 187 33 275 48 430 66 683 8 127 18
253 21 282 l5 51 72 6 c321 25 679 59 712 68 117 30 651 333 898 510 233 167
361 294 419 416 27 56 30 70 27 141 -3 66 -8 83 -31 113 -35 46 -100 76 -196
90 -60 8 -81 16 -98 35 -19 22 -22 23 -60 9 -75 -26 -182 -85 -230 -127 -302
-262 -730 -484 -1164 -603 -68 -18 -295 -66 -315 -66 -13 0 -15 28 -15 183 -1
183 -13 594 -26 848 l-7 136 174 90 c468 242 827 460 1424 866 346 235 368
252 355 277 -6 11 -7 62 -3 127 10 184 -22 300 -96 350 -77 52 -225 18 -490
-112 -244 -120 -500 -281 -916 -579 -360 -257 -518 -367 -522 -363 -2 2 -19
94 -38 203 -39 228 -105 561 -141 712 -13 57 -24 114 -24 127 0 37 36 72 155
150 428 278 1136 822 1389 1064 92 89 199 218 191 231 -3 5 4 43 16 85 23 87
28 183 10 236 -25 76 -150 159 -251 167 -153 11 -459 -172 -871 -523 -371
-315 -573 -490 -691 -599 -70 -64 -129 -116 -131 -116 -3 0 -10 21 -16 46 -26
102 -166 538 -241 750 l-81 225 20 32 c29 47 82 94 211 188 497 362 1063 836
1233 1033 34 40 78 92 98 115 87 101 84 275 -5 330 -17 11 -53 25 -81 32 -27
6 -55 17 -61 24 -16 20 -228 -53 -339 -116 -256 -146 -629 -457 -1040 -866
-99 -99 -191 -196 -205 -216 -14 -20 -28 -37 -31 -37 -3 0 -25 46 -49 103 -58
136 -216 480 -274 594 l-46 92 20 52 c38 94 110 192 234 315 140 139 321 277
561 429 430 272 597 449 598 635 1 109 -63 196 -195 265 -37 20 -68 41 -68 46
0 12 -114 3 -214 -17 -89 -18 -231 -87 -332 -162 -158 -117 -260 -225 -494
-527 -139 -180 -292 -367 -357 -437 l-43 -47 -41 72 c-96 167 -266 444 -353
577 -91 138 -93 144 -84 179 17 61 74 165 137 248 85 112 192 210 415 378 270
203 371 288 536 455 207 208 301 347 285 421 -13 56 -99 99 -201 99 -29 0 -38
6 -55 35 -12 19 -24 35 -27 35 -14 0 -366 -127 -442 -159 -173 -75 -308 -164
-458 -305 -162 -153 -353 -398 -486 -621 l-71 -120 -136 170 c-75 93 -180 219
-233 280 -109 123 -108 118 -53 215 46 82 193 222 362 345 195 142 362 274
505 399 154 135 392 372 422 421 27 44 58 145 58 189 0 72 -57 129 -140 142
-25 3 -51 14 -58 22 -11 15 -18 14 -80 -2 -37 -10 -114 -29 -172 -41 -249 -54
-438 -162 -650 -375 -192 -191 -418 -522 -552 -807 l-38 -81 -123 122 c-67 68
-166 164 -221 214 l-98 91 22 73 c96 318 344 605 735 848 75 47 166 108 203
137 37 28 88 64 114 79 26 15 45 31 42 36 -3 5 6 27 21 48 36 52 57 115 49
148 -9 38 -51 81 -100 103 -55 25 -138 19 -270 -20 -324 -96 -584 -278 -764
-532 -56 -81 -230 -368 -330 -546 -34 -62 -64 -113 -66 -113 -2 0 -34 19 -71
42 -85 52 -298 158 -380 189 -59 22 -63 26 -63 55 0 51 36 178 71 245 80 160
186 278 409 459 169 136 463 405 468 427 2 9 24 40 48 70 68 83 75 101 58 148
-7 22 -14 41 -14 42 0 1 -13 9 -30 18 -35 18 -117 20 -172 3 -32 -9 -41 -9
-48 2 -6 10 -15 8 -41 -11 -19 -12 -43 -31 -54 -42 -11 -10 -59 -42 -108 -70
-248 -144 -487 -371 -696 -660 -86 -120 -206 -322 -261 -440 l-45 -97 -35 6
c-19 3 -69 12 -110 20 -41 7 -131 18 -200 24 -69 6 -148 15 -177 18 l-52 7 43
103 c95 223 233 428 400 595 73 72 127 114 249 191 87 55 157 104 157 110 0 6
33 31 73 56 96 59 159 117 155 144 -13 94 -642 -103 -928 -291 -92 -60 -139
-112 -241 -267 -131 -197 -228 -417 -261 -588 l-12 -67 -56 -6 c-95 -10 -343
-46 -384 -55 l-39 -8 6 81 c7 108 51 227 126 343 73 113 187 234 256 274 34
19 52 36 49 44 -7 17 121 99 198 128 32 11 56 23 54 26 -3 2 -67 -1 -143 -8
-76 -7 -158 -14 -183 -15 -62 -4 -199 -38 -300 -74 -104 -38 -181 -88 -216
-140 -61 -92 -140 -344 -190 -604 l-29 -147 -110 -36 c-60 -19 -145 -48 -187
-64 -43 -16 -78 -26 -78 -24 0 15 77 209 105 264 48 95 116 183 180 231 41 31
55 48 53 63 -3 18 -11 21 -58 24 -48 3 -230 -21 -266 -35 -20 -8 -374 -460
-384 -490 -4 -16 -11 -66 -14 -113 -9 -122 -9 -122 -83 -159 -53 -26 -64 -29
-58 -14 52 118 69 218 38 230 -40 16 -162 -77 -374 -284 l-136 -133 -5 -69
c-7 -88 -42 -165 -97 -211 -110 -92 -144 -128 -199 -208 -72 -105 -156 -250
-224 -386 -125 -249 -356 -607 -444 -687 -16 -15 -42 -31 -59 -35 -25 -8 -38
-26 -81 -110 -57 -115 -159 -412 -265 -774 -39 -135 -91 -312 -115 -395 -24
-82 -61 -224 -81 -315 l-37 -165 -4 -425 c-2 -284 0 -422 7 -415 10 11 128
279 167 383 14 37 24 84 24 115 0 77 27 227 54 301 13 36 42 90 64 119 23 29
52 77 65 107 65 146 146 457 181 695 l22 150 8 -75 c11 -111 44 -366 57 -437
29 -162 70 -14 134 476 22 173 25 231 25 518 0 201 4 323 10 323 5 0 25 -14
45 -31 48 -42 73 -128 86 -294 17 -226 43 -329 92 -359 13 -8 20 -8 26 3 34
55 318 1214 322 1312 0 13 23 -82 50 -211 86 -411 133 -580 164 -580 59 0 367
776 464 1168 58 235 136 369 353 612 66 74 73 79 197 128 8 3 -12 -25 -43 -63
-64 -74 -129 -172 -169 -250 -41 -82 -91 -255 -195 -674 -102 -407 -145 -602
-135 -611 3 -3 7 0 10 5 2 6 24 45 49 88 32 55 50 77 60 73 11 -4 23 13 45 62
17 37 33 80 36 97 4 16 77 158 163 315 86 157 203 372 258 479 56 106 128 230
159 274 72 99 200 236 316 338 l89 77 159 31 c88 17 164 31 170 31 6 0 -58
-69 -142 -152 -234 -233 -382 -426 -475 -622 -65 -138 -83 -220 -88 -406 -3
-87 -8 -174 -11 -194 -6 -29 -4 -36 8 -36 9 0 18 -12 22 -29 11 -52 56 -65 70
-20 4 10 11 18 17 16 7 -1 26 36 43 83 74 202 434 779 655 1048 103 126 270
289 335 328 47 27 48 27 183 21 159 -8 342 -27 341 -36 0 -3 -37 -32 -82 -63
-356 -248 -631 -536 -762 -796 -52 -104 -73 -171 -95 -297 -10 -61 -22 -118
-26 -128 -3 -9 -2 -23 3 -30 5 -6 15 -31 22 -55 16 -56 48 -70 105 -48 25 10
43 12 51 6 8 -6 17 1 30 23 10 18 58 73 105 122 47 50 133 153 192 230 159
209 257 324 418 489 170 174 288 275 424 365 l99 64 43 -11 c75 -20 284 -115
402 -182 l113 -64 -75 -22 c-485 -145 -928 -494 -1183 -934 -32 -55 -78 -134
-103 -177 -25 -43 -46 -89 -46 -103 -1 -14 -5 -48 -9 -76 -14 -99 28 -121 147
-79 40 14 78 27 83 28 13 4 64 37 272 174 139 93 180 125 214 171 142 189 374
423 530 534 51 37 140 90 195 118 105 52 282 105 320 96 11 -3 114 -97 228
-208 l208 -202 -110 -22 c-289 -57 -558 -167 -796 -326 -303 -202 -564 -496
-725 -816 -112 -224 -59 -300 157 -224 71 25 81 26 90 13 9 -14 17 -12 67 14
31 17 82 53 113 81 32 28 93 73 137 99 207 125 512 331 814 553 177 130 190
138 340 197 242 96 230 93 260 57 235 -276 441 -532 441 -549 0 -5 -51 -17
-112 -27 -409 -65 -809 -220 -1100 -426 -252 -179 -487 -495 -488 -657 0 -97
65 -130 216 -112 123 16 185 40 291 117 479 343 955 539 1499 616 l42 6 99
-158 c159 -249 363 -593 363 -610 0 -18 -47 -32 -156 -47 -428 -59 -797 -171
-1021 -311 -141 -88 -202 -152 -335 -354 -38 -58 -80 -116 -93 -130 -12 -14
-25 -36 -28 -50 -3 -14 -15 -52 -27 -85 -31 -85 -25 -158 17 -196 33 -29 105
-49 178 -49 24 0 45 -5 47 -11 3 -8 17 -5 43 9 22 11 56 23 75 27 132 27 362
148 561 296 254 189 497 287 788 320 124 14 249 8 262 -12 46 -74 362 -787
354 -800 -16 -25 -98 -47 -200 -54 -314 -20 -601 -80 -864 -182 -320 -123
-625 -317 -740 -471 -104 -138 -104 -252 -3 -344 61 -55 138 -80 262 -86 58
-2 107 -8 110 -12 10 -16 111 21 181 66 41 26 101 73 134 104 185 175 505 313
845 364 58 9 186 19 285 22 99 4 187 11 197 15 11 6 18 4 23 -9 47 -117 290
-881 282 -888 -1 -1 -85 -12 -187 -23 -490 -57 -940 -134 -1205 -207 -301 -83
-435 -167 -504 -313 -23 -49 -26 -68 -25 -156 0 -118 18 -167 86 -241 54 -59
115 -87 188 -87 59 1 140 27 369 122 302 125 497 152 1177 166 l292 5 4 -27
c3 -16 28 -140 56 -278 49 -235 122 -650 122 -686 0 -9 -17 -24 -42 -35 -70
-31 -300 -25 -563 15 -482 74 -577 84 -805 84 -185 1 -225 -2 -287 -19 -40
-11 -73 -16 -73 -12 0 11 -71 -44 -121 -94 -21 -21 -51 -66 -68 -100 -97 -205
-50 -410 120 -520 27 -17 49 -37 49 -44 0 -17 87 -35 200 -41 89 -4 102 -2
210 32 191 63 275 60 845 -27 316 -49 512 -57 574 -25 19 9 36 16 37 14 5 -5
24 -633 24 -809 l0 -178 -47 -47 c-27 -27 -53 -56 -58 -67 -10 -17 -16 -18
-85 -6 -285 47 -770 187 -1199 346 -172 64 -219 68 -349 28 -175 -53 -276
-114 -311 -187 -25 -52 -26 -97 -4 -162 22 -65 122 -164 234 -230 46 -27 86
-52 89 -55 3 -3 19 -10 35 -17 17 -6 102 -41 190 -77 282 -114 402 -146 938
-245 268 -50 496 -91 507 -91 25 0 25 20 -5 -305 -28 -306 -69 -643 -80 -653
-14 -15 -152 -13 -219 2 -121 28 -307 125 -571 296 -82 54 -174 109 -203 124
-148 75 -363 120 -609 130 -128 5 -153 4 -153 -8 0 -9 -16 -17 -42 -21 -101
-17 -175 -86 -208 -193 -24 -75 -25 -130 -6 -176 31 -73 114 -106 318 -125
183 -17 277 -61 322 -149 42 -83 38 -80 494 -277 134 -58 179 -81 165 -87 -10
-3 -99 -16 -198 -28 -2939 -349 -6398 -995 -8755 -1635 -282 -77 -715 -200
-754 -215 l-27 -10 33 48 c18 26 543 783 1168 1682 1310 1885 1203 1730 1198
1735 -1 2 -835 -196 -1853 -439 -1017 -244 -1851 -442 -1853 -441 -4 3 -60
350 -86 540 -245 1754 -192 3556 154 5286 578 2885 1931 5527 3921 7654 1558
1666 3472 2940 5539 3687 1764 637 3558 886 5480 763 3854 -249 7455 -1737
10190 -4210 85 -77 229 -212 320 -300 232 -224 260 -247 140 -115 -168 186
-809 822 -1010 1002 -837 750 -1707 1384 -2655 1935 -758 441 -1630 858 -2461
1177 -1662 637 -3428 1036 -5339 1206 -1364 121 -2641 78 -3900 -131 -996
-165 -1986 -441 -2900 -809 -109 -44 -200 -78 -202 -76 -4 4 430 211 640 306
1903 853 3890 1324 6032 1430 228 11 1480 4 1675 -9z m3176 -4367 c127 -36
285 -100 482 -193 93 -44 188 -85 211 -90 22 -5 60 -20 83 -34 44 -26 202
-156 196 -162 -2 -2 -50 7 -108 20 -148 34 -376 71 -519 86 l-123 13 -146 170
c-80 94 -154 181 -165 194 -26 28 -19 28 89 -4z m-14419 -4344 c-33 -36 -63
-67 -65 -70 -2 -3 18 36 44 87 48 91 49 92 66 70 16 -21 15 -23 -45 -87z
m17993 -10177 c0 -200 -302 -8808 -309 -8812 -14 -9 -1700 -385 -1704 -380 -5
5 230 8540 235 8544 2 1 248 16 548 34 300 18 551 33 558 34 7 1 -185 132
-427 292 -242 159 -438 292 -435 294 4 5 1234 47 1427 50 l107 1 0 -57z
m-9717 -980 c-7 -2 -19 -2 -25 0 -7 3 -2 5 12 5 14 0 19 -2 13 -5z m-11053
-210 c-1 -5 -547 -757 -1214 -1673 -667 -916 -1213 -1666 -1212 -1667 1 -1
235 57 520 128 285 71 520 128 521 127 6 -8 -205 -11652 -212 -11658 -13 -12
-4512 -2200 -4523 -2200 -7 0 -8 96 -4 283 4 155 70 3642 148 7749 78 4107
143 7469 146 7471 4 4 5797 1443 5823 1446 4 1 7 -2 7 -6z m23560 -389 c1196
-15 2177 -29 2180 -31 4 -4 -238 -6325 -243 -6330 -6 -6 -4518 -765 -4523
-761 -2 3 44 1612 103 3577 l108 3571 100 0 c55 1 1079 -11 2275 -26z m-4897
-131 c-2 -49 -44 -1388 -94 -2977 -49 -1590 -91 -2891 -92 -2891 -1 -1 -637
-129 -1413 -285 l-1411 -283 -7 -66 c-3 -36 -6 -216 -6 -398 0 -260 3 -333 13
-333 6 0 628 126 1381 281 752 154 1370 279 1371 277 2 -2 7 -206 11 -454 7
-438 6 -452 -12 -458 -62 -19 -4549 -1085 -4552 -1081 -7 6 184 8465 191 8471
3 3 1040 68 2304 144 1264 75 2303 138 2309 139 8 1 10 -25 7 -86z m10416 -58
c893 -47 1626 -87 1630 -90 5 -6 -207 -5476 -213 -5482 -3 -4 -1740 -162
-1742 -160 -1 2 191 4789 200 4975 l7 132 -566 0 c-445 0 -565 -3 -565 -12 2
-48 -164 -5254 -167 -5258 -5 -5 -1764 -192 -1769 -187 -5 4 202 5696 207
5701 2 2 382 7 843 11 462 4 850 10 862 14 20 5 -13 36 -236 221 -142 118
-259 218 -259 222 -1 4 32 5 72 2 39 -3 803 -43 1696 -89z m-15594 -347 c-3
-117 -22 -885 -40 -1707 -19 -821 -36 -1496 -39 -1498 -4 -4 -1700 -262 -1701
-259 -1 0 6 551 14 1224 8 672 11 1225 8 1229 -7 6 -1078 -115 -1086 -123 -5
-5 -172 -6928 -168 -6985 l2 -36 533 140 532 140 0 61 c2 148 77 2406 81 2409
2 2 398 85 879 184 l875 180 2 -46 c4 -71 -112 -3280 -119 -3286 -10 -10
-4582 -1414 -4587 -1409 -6 6 306 8631 317 8769 l7 90 1100 131 c605 72 1102
132 1105 133 2 0 -200 116 -450 257 -250 140 -459 259 -463 263 -5 5 45 14
110 21 65 7 773 84 1573 170 800 87 1470 158 1488 159 l34 1 -7 -212z m19930
26 c1248 -96 2270 -176 2271 -177 2 -5 -246 -4680 -248 -4683 -5 -4 -4540
-356 -4544 -352 -4 5 152 4188 157 4192 2 1 616 -21 1364 -50 748 -29 1388
-53 1423 -53 l62 -1 0 255 0 255 -25 0 c-14 0 -626 36 -1360 80 -734 44 -1348
80 -1365 80 l-30 0 0 315 c0 245 3 315 13 315 6 0 1033 -79 2282 -176z
m-24742 -391 c-2 -32 -35 -868 -74 -1858 -39 -990 -71 -1800 -72 -1801 -11 -3
-1682 -382 -1684 -381 -1 1 12 598 28 1327 15 729 29 1343 29 1366 l0 40 -552
-116 -553 -116 -3 -80 c-4 -127 -172 -8654 -172 -8747 l0 -84 -856 -363 c-470
-199 -864 -364 -875 -367 -19 -5 -20 -1 -13 263 3 148 43 2338 89 4868 57
3161 86 4600 93 4605 6 4 552 103 1214 220 662 118 1206 217 1210 221 4 3
-264 129 -597 279 -333 151 -603 276 -601 279 6 5 3325 499 3367 501 25 1 25
0 22 -56z m-4973 -853 c0 -286 -231 -10475 -238 -10481 -13 -12 -4552 -1912
-4557 -1908 -6 7 259 8997 266 9004 5 5 2771 765 2785 765 2 0 4 259 4 575 0
316 -2 575 -4 575 -2 0 -603 -149 -1337 -330 -734 -182 -1360 -337 -1391 -345
l-58 -13 0 697 0 697 2258 441 c1241 242 2260 441 2265 442 4 1 7 -53 7 -119z
m19490 -5703 c-1564 -1541 -3555 -2668 -5825 -3296 -1176 -325 -2317 -504
-3780 -593 -286 -18 -1426 -17 -1675 0 -457 32 -753 62 -1140 117 -267 38
-289 43 -250 55 14 4 356 111 760 238 2110 661 5231 1611 9315 2835 781 235
1726 518 2100 630 374 113 682 205 685 206 3 0 -83 -86 -190 -192z"/>
<path d="M34400 34848 c41 -45 50 -53 50 -45 0 2 -21 23 -47 47 l-48 45 45
-47z"/>
<path d="M6530 19471 c-239 -54 -470 -106 -512 -115 l-78 -17 0 -1068 0 -1068
523 116 522 117 3 1067 c2 851 0 1067 -10 1066 -7 0 -209 -45 -448 -98z"/>
<path d="M6460 16011 l-515 -127 -3 -60 c-6 -150 -172 -9389 -170 -9466 l3
-87 540 284 c297 157 544 286 549 288 6 2 32 1763 67 4523 65 5035 62 4774 52
4773 -5 0 -240 -58 -523 -128z"/>
<path d="M32970 19797 c0 -24 -29 -1206 -65 -2627 -36 -1421 -64 -2585 -62
-2587 2 -2 249 34 548 79 l544 81 98 2481 c54 1365 101 2511 104 2549 l6 67
-587 0 -586 0 0 -43z"/>
<path d="M26412 19525 c-288 -24 -525 -45 -527 -47 -3 -3 -96 -4481 -92 -4484
1 -1 261 46 577 105 l575 106 3 90 c2 77 92 4239 92 4266 0 14 -58 10 -628
-36z"/>
<path d="M42849 18418 c-1 -4 -76 -2793 -75 -2795 3 -5 1095 43 1101 49 5 5
114 2562 115 2701 l0 47 -570 0 c-313 0 -570 -1 -571 -2z"/>
<path d="M11450 14806 l-565 -142 -3 -70 c-8 -229 -142 -5998 -140 -6040 l3
-51 565 197 c310 109 571 202 579 207 12 8 25 455 87 2994 40 1641 73 2999 74
3017 0 24 -4 32 -17 31 -10 0 -272 -65 -583 -143z"/>
</g>
</svg>
